<?xml version="1.0" encoding="UTF-8"?>
<!DOCTYPE svg PUBLIC "-//W3C//DTD SVG 1.1//EN" "http://www.w3.org/Graphics/SVG/1.1/DTD/svg11.dtd">
<!-- Creator: CorelDRAW 2020 -->
<svg xmlns="http://www.w3.org/2000/svg" xml:space="preserve" width="61.7361mm" height="61.7361mm" version="1.1" style="shape-rendering:geometricPrecision; text-rendering:geometricPrecision; image-rendering:optimizeQuality; fill-rule:evenodd; clip-rule:evenodd"
viewBox="0 0 6138.52 6138.52"
 xmlns:xlink="http://www.w3.org/1999/xlink"
 xmlns:xodm="http://www.corel.com/coreldraw/odm/2003">
 <defs>
  <style type="text/css">
   <![CDATA[
    .fil0 {fill:#d5b36c;fill-rule:nonzero}
   ]]>
  </style>
 </defs>
 <g id="Layer_x0020_1">
  <metadata id="CorelCorpID_0Corel-Layer"/>
  <path class="fil0" d="M245.55 245.54l245.54 0 245.55 0 245.54 0 245.55 0 245.54 0 0 245.55 0 245.54 0 245.55 0 245.54 0 245.54 -245.54 0 -245.55 0 -245.54 0 -245.55 0 -245.54 0 0 -245.54 0 -245.54 0 -245.55 0 -245.54 0 -245.55zm5647.44 5892.98l245.54 0 0 -245.55 -245.54 0 -245.54 0 0 -245.54 245.54 0 0 -245.54 245.54 0 0 -245.55 0 -245.54 -245.54 0 0 -245.55 245.54 0 0 -245.54 0 -245.55 0 -245.54 0 -245.55 -245.54 0 0 -245.54 245.54 0 0 -245.54 0 -245.55 -245.54 0 -245.54 0 0 -245.54 -245.55 0 -245.54 0 0 245.54 -245.55 0 -245.54 0 -245.55 0 0 -245.54 0 -245.55 -245.54 0 -245.55 0 0 245.55 -245.54 0 0 -245.55 0 -245.54 245.54 0 245.55 0 245.54 0 0 -245.55 -245.54 0 0 -245.54 0 -245.55 -245.55 0 0 245.55 -245.54 0 0 -245.55 -245.54 0 0 -245.54 0 -245.54 0 -245.55 245.54 0 0 -245.54 0 -245.55 0 -245.54 -245.54 0 0 245.54 0 245.55 -245.55 0 -245.54 0 -245.55 0 0 245.54 0 245.55 -245.54 0 0 -245.55 -245.55 0 0 -245.54 -245.54 0 0 245.54 0 245.55 0 245.54 245.54 0 0 245.54 -245.54 0 0 245.55 245.54 0 0 245.54 -245.54 0 0 245.55 245.54 0 0 245.54 -245.54 0 0 245.55 0 245.54 0 245.55 -245.55 0 0 -245.55 -245.54 0 -245.54 0 -245.55 0 0 -245.54 245.55 0 0 -245.55 245.54 0 0 245.55 245.54 0 0 -245.55 -245.54 0 0 -245.54 245.54 0 0 -245.55 -245.54 0 0 245.55 -245.54 0 0 245.54 -245.55 0 0 245.55 -245.54 0 -245.55 0 0 -245.55 -245.54 0 0 -245.54 245.54 0 245.55 0 245.54 0 0 -245.55 -245.54 0 -245.55 0 -245.54 0 -245.55 0 0 245.55 0 245.54 0 245.55 245.55 0 245.54 0 0 245.54 -245.54 0 0 245.55 0 245.54 0 245.54 -245.55 0 0 245.55 245.55 0 0 -245.55 245.54 0 245.55 0 0 245.55 -245.55 0 0 245.54 245.55 0 245.54 0 0 -245.54 0 -245.55 245.55 0 245.54 0 245.54 0 0 245.55 -245.54 0 0 245.54 245.54 0 245.55 0 0 245.55 245.54 0 0 -245.55 245.55 0 0 -245.54 245.54 0 0 -245.55 0 -245.54 0 -245.54 -245.54 0 0 -245.55 -245.55 0 0 -245.54 0 -245.55 245.55 0 0 -245.54 -245.55 0 0 -245.55 245.55 0 0 -245.54 245.54 0 0 245.54 0 245.55 0 245.54 0 245.55 245.55 0 0 -245.55 245.54 0 0 -245.54 0 -245.55 -245.54 0 0 -245.54 245.54 0 0 -245.55 245.55 0 0 245.55 0 245.54 245.54 0 0 245.55 -245.54 0 0 245.54 0 245.55 -245.55 0 0 245.54 0 245.55 245.55 0 0 -245.55 0 -245.54 245.54 0 0 245.54 0 245.55 0 245.54 -245.54 0 -245.55 0 0 245.54 -245.54 0 0 245.55 0 245.54 -245.55 0 0 245.55 -245.54 0 0 245.54 -245.55 0 0 245.55 245.55 0 0 245.54 -245.55 0 -245.54 0 0 245.55 0 245.54 0 245.54 0 245.55 245.54 0 245.55 0 245.54 0 245.55 0 0 -245.55 -245.55 0 -245.54 0 -245.55 0 0 -245.54 245.55 0 0 -245.54 245.54 0 0 245.54 245.55 0 0 -245.54 245.54 0 0 245.54 0 245.54 0 245.55 245.55 0 0 -245.55 245.54 0 0 -245.54 245.54 0 0 -245.54 -245.54 0 0 -245.55 -245.54 0 0 245.55 -245.55 0 0 -245.55 0 -245.54 -245.54 0 0 -245.55 245.54 0 0 -245.54 245.55 0 245.54 0 0 -245.55 245.54 0 0 245.55 0 245.54 0 245.55 0 245.54 245.55 0 0 245.55 0 245.54 0 245.54 0 245.55 245.54 0 245.55 0 245.54 0 245.55 0 245.54 0 245.55 0 245.54 0zm-491.08 -245.55l-245.54 0 0 -245.54 0 -245.54 245.54 0 0 245.54 0 245.54zm-491.08 0l-245.54 0 0 -245.54 0 -245.54 0 -245.55 245.54 0 0 245.55 0 245.54 0 245.54zm-3437.57 245.55l245.54 0 0 -245.55 0 -245.54 0 -245.54 0 -245.55 0 -245.54 0 -245.55 0 -245.54 -245.54 0 -245.54 0 -245.55 0 -245.54 0 -245.55 0 -245.54 0 -245.55 0 0 245.54 0 245.55 0 245.54 0 245.55 0 245.54 0 245.54 0 245.55 245.55 0 245.54 0 245.55 0 245.54 0 245.55 0 245.54 0zm0 -245.55l-245.54 0 -245.55 0 -245.54 0 -245.55 0 -245.54 0 0 -245.54 0 -245.54 0 -245.55 0 -245.54 0 -245.55 245.54 0 245.55 0 245.54 0 245.55 0 245.54 0 0 245.55 0 245.54 0 245.55 0 245.54 0 245.54zm-491.08 -245.54l245.55 0 0 -245.54 0 -245.55 0 -245.54 -245.55 0 -245.54 0 -245.55 0 0 245.54 0 245.55 0 245.54 245.55 0 245.54 0zm4665.28 -491.08l-245.55 0 0 -245.54 -245.54 0 0 -245.55 0 -245.54 0 -245.55 245.54 0 0 245.55 0 245.54 245.55 0 0 245.55 0 245.54zm-2700.95 0l-245.55 0 0 -245.54 245.55 0 0 245.54zm1964.32 -245.54l-245.54 0 -245.55 0 -245.54 0 0 -245.55 0 -245.54 0 -245.55 245.54 0 245.55 0 245.54 0 0 245.55 0 245.54 0 245.55zm-1473.24 0l245.54 0 0 -245.55 -245.54 0 0 245.55zm-491.08 -245.55l-245.55 0 0 -245.54 245.55 0 0 245.54zm2946.49 -245.54l-245.54 0 0 -245.55 245.54 0 0 245.55zm-1473.25 245.54l245.55 0 0 -245.54 -245.55 0 0 245.54zm-1227.7 -245.54l-245.54 0 0 -245.55 245.54 0 0 245.55zm2700.95 -491.08l-245.54 0 -245.55 0 -245.54 0 0 -245.55 0 -245.54 0 -245.54 0 -245.55 245.54 0 0 245.55 245.55 0 245.54 0 0 245.54 -245.54 0 -245.55 0 0 245.54 245.55 0 245.54 0 0 245.55zm-1227.7 0l-245.55 0 -245.54 0 0 -245.55 245.54 0 245.55 0 0 245.55zm-736.63 0l-245.54 0 0 -245.55 0 -245.54 245.54 0 245.55 0 0 245.54 -245.55 0 0 245.55zm-491.07 0l-245.55 0 0 -245.55 245.55 0 0 245.55zm1473.24 -245.55l-245.54 0 0 -245.54 245.54 0 0 245.54zm-3928.65 0l-245.54 0 0 -245.54 0 -245.54 0 -245.55 245.54 0 0 245.55 245.55 0 0 245.54 -245.55 0 0 245.54zm1473.25 -245.54l-245.55 0 -245.54 0 0 -245.54 245.54 0 245.55 0 0 245.54zm-736.63 0l-245.54 0 0 -245.54 245.54 0 0 245.54zm2700.95 -245.54l-245.54 0 -245.55 0 0 -245.55 245.55 0 245.54 0 0 245.55zm245.55 -491.08l245.54 0 0 -245.55 0 -245.54 245.55 0 245.54 0 245.55 0 0 245.54 245.54 0 0 -245.54 245.54 0 0 -245.55 -245.54 0 0 245.55 -245.54 0 0 -245.55 -245.55 0 -245.54 0 -245.55 0 0 245.55 -245.54 0 0 245.54 0 245.55zm-1718.78 -982.17l-245.55 0 0 -245.55 -245.54 0 0 -245.54 245.54 0 245.55 0 0 245.54 0 245.55zm-491.08 0l-245.55 0 0 -245.55 245.55 0 0 245.55zm3437.57 0l245.54 0 0 -245.55 0 -245.54 0 -245.54 0 -245.55 0 -245.54 0 -245.55 0 -245.54 -245.54 0 -245.54 0 -245.55 0 -245.54 0 -245.55 0 -245.54 0 -245.55 0 0 245.54 0 245.55 0 245.54 0 245.55 0 245.54 0 245.54 0 245.55 245.55 0 245.54 0 245.55 0 245.54 0 245.55 0 245.54 0zm0 -245.55l-245.54 0 -245.55 0 -245.54 0 -245.55 0 -245.54 0 0 -245.54 0 -245.54 0 -245.55 0 -245.54 0 -245.55 245.54 0 245.55 0 245.54 0 245.55 0 245.54 0 0 245.55 0 245.54 0 245.55 0 245.54 0 245.54zm-4419.74 245.55l245.54 0 0 -245.55 0 -245.54 0 -245.54 0 -245.55 0 -245.54 0 -245.55 0 -245.54 -245.54 0 -245.54 0 -245.55 0 -245.54 0 -245.55 0 -245.54 0 -245.55 0 0 245.54 0 245.55 0 245.54 0 245.55 0 245.54 0 245.54 0 245.55 245.55 0 245.54 0 245.55 0 245.54 0 245.55 0 245.54 0zm1718.78 -491.08l-245.54 0 0 -245.54 245.54 0 0 245.54zm2209.87 0l245.55 0 0 -245.54 0 -245.55 0 -245.54 -245.55 0 -245.54 0 -245.55 0 0 245.54 0 245.55 0 245.54 245.55 0 245.54 0zm-1718.78 0l245.54 0 0 -245.54 245.55 0 0 -245.55 0 -245.54 0 -245.55 -245.55 0 0 245.55 0 245.54 0 245.55 -245.54 0 0 245.54zm-2700.95 0l245.55 0 0 -245.54 0 -245.55 0 -245.54 -245.55 0 -245.54 0 -245.55 0 0 245.54 0 245.55 0 245.54 245.55 0 245.54 0zm1227.7 -982.17l245.55 0 0 -245.54 -245.55 0 -245.54 0 0 245.54 245.54 0z"/>
 </g>
</svg>
