<?xml version="1.0" encoding="UTF-8"?>
<!DOCTYPE svg PUBLIC "-//W3C//DTD SVG 1.1//EN" "http://www.w3.org/Graphics/SVG/1.1/DTD/svg11.dtd">
<!-- Creator: CorelDRAW X8 -->
<svg xmlns="http://www.w3.org/2000/svg" xml:space="preserve" width="120.703mm" height="130.556mm" version="1.1" style="shape-rendering:geometricPrecision; text-rendering:geometricPrecision; image-rendering:optimizeQuality; fill-rule:evenodd; clip-rule:evenodd"
viewBox="0 0 12070 13056"
 xmlns:xlink="http://www.w3.org/1999/xlink">
 <defs>
  <style type="text/css">
   <![CDATA[
    .str0 {stroke:#D7B56D;stroke-width:7.62001}
    .fil2 {fill:#D7B56D;fill-rule:nonzero}
    .fil1 {fill:url(#id0)}
    .fil0 {fill:url(#id1)}
   ]]>
  </style>
  <linearGradient id="id0" gradientUnits="userSpaceOnUse" x1="1647.88" y1="9103.37" x2="11888.2" y2="9103.31">
   <stop offset="0" style="stop-opacity:1; stop-color:#D7B56D"/>
   <stop offset="0.501961" style="stop-opacity:1; stop-color:#A5741A"/>
   <stop offset="1" style="stop-opacity:1; stop-color:#D7B56D"/>
  </linearGradient>
  <linearGradient id="id1" gradientUnits="userSpaceOnUse" x1="-812.931" y1="9330.49" x2="14109.3" y2="9330.46">
   <stop offset="0" style="stop-opacity:1; stop-color:#D7B56D"/>
   <stop offset="0.231373" style="stop-opacity:1; stop-color:#D7B56D"/>
   <stop offset="0.478431" style="stop-opacity:1; stop-color:#A5741A"/>
   <stop offset="0.741176" style="stop-opacity:1; stop-color:#D7B56D"/>
   <stop offset="1" style="stop-opacity:1; stop-color:#D7B56D"/>
  </linearGradient>
 </defs>
 <g id="Layer_x0020_1">
  <metadata id="CorelCorpID_0Corel-Layer"/>
  <g id="_633438360">
   <g>
    <path class="fil0" d="M5722 4196c-1460,-314 -1914,-1664 -1914,-1664 832,1281 1766,773 1766,773 -2004,-660 -1698,-3178 -1698,-3178 126,647 792,1206 1336,1542 627,388 1693,499 1350,1565 -146,458 -529,681 -840,962zm2212 -794c-16,-419 -73,-975 122,-1341 121,-226 348,-371 684,-415 -377,26 -629,111 -778,445 -870,-473 -1405,92 -1405,92 0,0 548,-486 1380,-33 -40,108 -72,239 -96,397 -62,418 10,954 -28,1440 -813,283 -1472,323 -2004,226 306,-284 689,-506 842,-985 358,-1114 -847,-1283 -1502,-1688 -568,-351 -1147,-864 -1279,-1540 0,0 -540,2435 1574,3309 0,0 -976,277 -1735,-976 0,0 393,1581 1958,1914 -220,223 -340,481 -376,743 -280,-132 -533,-289 -728,-425 0,0 0,0 0,0 196,138 447,300 726,442 -42,334 53,676 252,967 -5,-1 -10,-2 -15,-2 -37,-6 -84,-11 -142,-15 -58,-4 -94,-7 -108,-10 -262,-36 -556,-47 -882,-34 -29,-1 -59,-2 -90,-3 17,-49 34,-96 51,-141 6,-16 0,-28 -18,-35 -18,-7 -30,-3 -39,10 -29,53 -56,107 -83,164 -140,-2 -287,2 -440,11 -55,3 -113,7 -176,12 7,-146 15,-277 22,-394 0,-21 -12,-33 -35,-36 -23,-3 -36,5 -38,24 -27,132 -51,271 -73,417 -117,11 -245,25 -386,42 8,-168 16,-317 25,-447 0,-21 -12,-33 -35,-36 -23,-3 -36,5 -39,24 -29,149 -56,307 -81,475 -5,0 -88,11 -247,32 -49,6 -146,21 -292,47 -125,22 -233,40 -322,53 -61,-12 -114,-31 -157,-55 -14,-8 -25,-5 -33,8 -8,14 -5,23 8,29 19,12 38,23 57,33 -76,6 -158,6 -247,1 -122,-7 -219,-30 -292,-71 -14,-8 -25,-5 -33,8 -8,14 -5,23 8,29 41,27 83,47 126,61 43,13 93,21 150,22 57,1 102,1 134,0 33,-1 85,-6 156,-12 30,-3 55,-6 77,-8 41,12 88,19 140,20 57,1 102,1 134,0 33,-1 85,-6 157,-12 71,-7 118,-12 140,-15 76,-5 183,-15 321,-29 -85,729 -80,1625 15,2687 3,25 16,37 39,37 23,0 36,-12 38,-37 11,-127 18,-223 21,-288 0,-10 -4,-18 -12,-22 -9,-4 -17,-5 -25,-2 -19,-519 0,-1289 57,-2309 1,-31 3,-57 4,-80 111,-12 236,-26 377,-42 -92,739 -89,1653 9,2743 2,25 15,37 38,37 23,0 36,-12 39,-37 10,-127 17,-223 20,-288 0,-10 -4,-18 -12,-22 -8,-4 -16,-5 -25,-2 -18,-519 0,-1289 57,-2309 3,-62 6,-108 8,-138 3,0 7,-1 13,-2 5,-1 10,-2 16,-2 199,-21 381,-38 545,-49 -146,336 -258,740 -338,1214 -27,173 -47,317 -59,434 -12,116 -14,255 -6,418 8,162 35,304 81,426 35,89 73,138 114,146 40,8 94,-22 162,-89 65,-65 128,-138 191,-219 62,-82 124,-176 186,-282 63,-107 113,-195 150,-262 8,-14 17,-29 26,-46 7,15 17,30 29,44 37,42 90,57 161,46 13,-2 28,-6 44,-12 16,-5 31,-11 45,-18 13,-7 29,-16 46,-26 18,-11 32,-20 41,-27 9,-7 24,-17 43,-32 19,-15 31,-25 38,-31 7,-5 20,-17 41,-34 20,-18 32,-28 34,-31 122,-102 233,-228 333,-377 5,-11 5,-20 0,-28 -5,-9 -14,-13 -26,-15 -13,-1 -21,4 -27,15 -57,92 -151,199 -284,322 -132,123 -228,192 -288,205 -73,14 -113,-13 -120,-81 -6,-68 9,-142 47,-223 30,-14 60,-28 91,-43 31,-15 65,-32 102,-53 36,-20 68,-42 95,-64 27,-23 50,-47 67,-72 18,-24 26,-50 24,-77 -1,-27 -15,-51 -42,-73 -30,-29 -64,-36 -104,-20 -39,16 -77,41 -115,73 -38,33 -76,74 -114,124 -38,50 -68,95 -91,134 -23,39 -41,71 -55,95 -22,54 -34,111 -37,171 0,10 0,20 1,30 -44,82 -107,193 -189,333 -88,150 -169,272 -244,365 -74,93 -127,133 -160,120 -124,-63 -176,-264 -156,-605 20,-341 75,-712 164,-1114 65,-290 133,-546 204,-768 53,-3 104,-6 153,-8 70,3 138,9 203,15 125,14 249,34 373,61 44,30 83,41 118,33 3,5 4,9 4,12 3,2 6,7 8,12 17,24 36,30 57,16 3,0 7,-1 12,-4 6,-3 10,-5 12,-8 25,-16 29,-37 13,-61 -14,-22 -35,-41 -66,-58 117,13 233,33 350,58 43,30 82,41 117,33 3,5 4,9 4,12 3,2 6,7 9,12 13,20 29,28 46,21 183,200 420,364 699,466 -269,-105 -498,-273 -672,-477 3,-2 6,-4 8,-6 24,-16 28,-37 12,-61 -16,-27 -45,-50 -87,-69 -17,-7 -34,-14 -50,-19 -187,-285 -277,-619 -235,-948 445,218 951,376 1407,303 810,-129 1099,-647 1160,-1384 345,-133 718,-309 1119,-534 -401,222 -773,393 -1118,521 13,-171 14,-353 7,-545zm-123 601c-52,638 -298,1187 -1289,1266 -390,32 -797,-83 -1161,-246 38,-268 163,-531 394,-759l0 0c541,96 1217,45 2056,-261zm3901 3263c17,-16 30,-13 41,8 0,11 -3,19 -8,25 -11,10 -51,55 -120,133 -69,79 -135,145 -199,199 -63,54 -115,82 -156,82 -51,0 -90,-46 -116,-138 -25,-92 -44,-188 -54,-289 -11,-100 -22,-154 -33,-162 -32,-16 -105,70 -219,260 -114,189 -206,360 -276,511 -3,3 -5,6 -6,10 -1,4 -3,8 -4,12 -1,4 -2,8 -2,11 -3,8 -7,13 -12,16l0 4c-3,8 -9,12 -19,12 -9,0 -15,-3 -18,-8 -16,-5 -23,-16 -20,-33 57,-511 150,-918 280,-1221 3,-8 13,-9 32,-2 19,7 29,14 29,22 -27,271 -88,574 -183,909 203,-406 332,-608 386,-608 38,0 67,33 89,99 22,66 35,138 41,215 5,77 20,147 46,209 26,62 63,91 112,85 30,-2 63,-20 101,-52 38,-33 73,-68 106,-106 32,-38 66,-78 101,-120 35,-42 62,-69 81,-83zm-1347 -393c43,140 61,303 53,488 -8,186 -35,357 -81,514 -46,157 -92,231 -138,223 -27,-5 -62,-122 -106,-349 -43,-227 -70,-342 -81,-345 -8,0 -36,45 -83,134 -47,89 -100,175 -156,256 -57,81 -103,116 -138,105 -22,-5 -37,-61 -45,-166 -7,-91 -1,-192 18,-302 -118,81 -258,129 -420,144 -62,178 -154,267 -276,267 -38,-2 -55,-45 -52,-127 2,-83 21,-166 56,-250 -43,-78 -40,-165 9,-260 13,-32 33,-59 60,-81 27,-22 55,-34 82,-38 27,-5 53,-2 79,8 25,9 47,27 65,52 17,26 27,59 30,100 5,81 -7,173 -36,276 154,-15 294,-73 420,-175 28,-115 70,-199 127,-251 8,-11 25,-12 49,-4 24,8 33,21 24,40 -4,11 -8,23 -12,35 5,2 11,6 16,14 9,8 9,16 0,24 -14,22 -29,42 -45,61 -19,74 -37,163 -56,270 -32,185 -38,278 -16,278 19,3 53,-40 101,-128 49,-88 96,-176 140,-264 45,-88 74,-132 87,-132 33,6 67,127 104,364 36,236 71,355 103,355 22,2 48,-65 78,-201 29,-137 48,-288 56,-455 8,-166 -9,-324 -52,-472 -3,-8 -2,-15 2,-19 4,-4 10,-5 18,-4 8,2 13,6 16,15zm-1457 908c30,9 60,-8 90,-48 29,-41 56,-94 81,-158 -52,-9 -94,-29 -126,-61 -24,51 -41,104 -51,158 -9,54 -7,91 6,109zm187 -267c13,-54 23,-106 28,-155 -46,3 -89,32 -129,86 29,35 63,58 101,69zm-134 -126c49,-73 103,-107 162,-102 -5,-92 -36,-124 -93,-97 -41,19 -66,47 -77,85 -11,38 -8,76 8,114zm-166 -276c5,13 0,24 -15,30 -14,7 -26,4 -34,-10 -35,-70 -92,-48 -170,67 -79,115 -136,213 -171,294 -62,138 -96,298 -101,479 0,14 -7,23 -21,29 -2,5 -8,8 -18,8 -9,0 -14,-6 -14,-17 0,-2 0,-6 0,-10 0,-4 -1,-6 -2,-8 -1,-1 -2,-3 -2,-6 -3,-35 -4,-72 -4,-109 -3,-176 7,-357 28,-542l2 -18c-132,34 -286,110 -460,227 35,32 62,69 81,109 100,236 56,554 -132,954 -188,400 -428,718 -718,952 -291,234 -515,263 -672,87 -89,-98 -110,-236 -63,-414 48,-179 137,-367 268,-566 131,-199 294,-398 489,-597 195,-198 394,-368 596,-509 -67,-43 -154,-66 -259,-69 -127,-3 -269,33 -426,106 -217,192 -433,358 -650,499 -21,73 -42,144 -60,215 -38,265 -63,450 -73,556 0,24 -13,39 -39,44 -26,6 -43,-1 -51,-20 -13,-5 -19,-16 -16,-32 8,-63 19,-132 32,-207 11,-138 26,-290 45,-455 -205,122 -394,206 -564,252 -32,11 -54,0 -65,-33 -8,-21 -1,-35 20,-40 6,-3 14,-6 25,-10 11,-4 17,-7 20,-7 51,-35 144,-98 278,-190 134,-92 239,-164 315,-215 91,-752 181,-1300 267,-1644 -19,22 -38,35 -56,41 -17,5 -29,3 -37,-6 -8,-10 -11,-22 -10,-37 1,-15 7,-29 16,-42 10,-14 22,-30 37,-49 15,-19 25,-31 30,-37 8,-8 39,-50 93,-125 11,-14 24,-16 39,-7 15,10 20,21 14,35 0,3 -1,6 -4,10 -3,4 -4,8 -4,10 -5,182 -76,701 -211,1559 46,-149 95,-296 148,-441 53,-145 110,-291 173,-438 62,-147 125,-284 190,-410 65,-126 134,-246 205,-361 72,-115 144,-212 217,-292 73,-80 149,-146 228,-199 78,-53 155,-81 231,-85 76,-4 153,11 231,46 125,68 190,175 195,321 5,146 -40,312 -136,497 -96,185 -225,379 -388,580 -162,202 -346,400 -551,595 43,-14 86,-25 129,-35 44,-9 89,-15 136,-18 48,-3 94,-3 138,0 45,3 88,10 130,22 42,13 79,29 112,51 193,-123 368,-203 526,-242 23,-138 57,-228 103,-269 5,-6 16,-6 32,-2 17,4 26,10 29,18 8,24 9,58 4,99 -6,42 -12,76 -19,100 -2,9 -5,20 -9,32 7,1 12,5 16,13 5,10 5,22 0,34 -6,12 -15,18 -29,18l-9 1 -1 1c-15,42 -25,75 -30,100 0,2 0,7 0,12l-4 8c37,-76 83,-156 138,-239 16,-27 37,-52 64,-75 27,-23 56,-42 86,-55 29,-14 58,-14 85,-2 27,12 46,40 57,83zm-2618 962c3,-8 4,-17 4,-25 -108,68 -211,130 -308,187 103,-49 204,-103 304,-162zm187 -122c46,-30 91,-61 134,-93 -27,16 -47,28 -61,36 -8,6 -20,13 -37,22 -16,10 -25,16 -28,19 -3,2 -4,6 -4,12 0,3 -1,4 -4,4zm527 -410c168,-151 326,-310 473,-475 148,-165 274,-326 380,-483 105,-157 188,-303 247,-440 60,-137 84,-255 73,-355 -11,-100 -58,-170 -142,-211 -103,-49 -212,-39 -328,28 -117,68 -227,175 -331,321 -104,146 -211,326 -319,540 -108,213 -205,430 -290,649 -85,219 -166,446 -241,682 175,-109 335,-194 478,-256zm-450 1988c149,138 353,95 613,-129 235,-203 434,-474 596,-812 182,-384 229,-679 142,-885 -16,-46 -40,-83 -73,-113 -251,181 -495,405 -732,671 -237,267 -412,522 -526,765 -113,244 -120,411 -20,503zm-1432 -2357c-21,2 -53,38 -96,107l-5 10 3 0c79,-62 118,-98 118,-109 -3,-5 -10,-8 -20,-8zm-2674 -1022c82,1 157,-3 227,-13 61,-9 133,-20 214,-33 -176,20 -323,35 -441,46zm170 1014c5,-8 14,-13 26,-15 12,-1 23,2 33,9 9,6 11,15 6,26 -16,46 -28,114 -35,203 -6,89 -11,186 -14,290 -3,104 -4,162 -4,172 0,19 -11,30 -32,33 -22,3 -36,-4 -41,-20 -32,-106 -44,-224 -35,-355 10,-132 42,-246 96,-343zm113 -313c9,22 5,40 -10,55 -15,15 -33,24 -54,26 -17,0 -28,-6 -33,-18 -5,-12 -5,-25 0,-38 5,-14 16,-21 33,-21 2,-5 5,-9 8,-12 5,-13 15,-19 28,-16 14,3 23,11 28,24zm-125 1055c24,-16 40,-9 48,21 6,29 -2,51 -24,64 -95,65 -269,195 -523,390 -90,70 -159,124 -207,160 -49,37 -119,90 -209,159 -91,69 -164,122 -220,160 -55,38 -125,86 -211,144 -85,58 -156,103 -213,136 -56,32 -121,68 -194,107 -73,40 -136,68 -189,86 -53,17 -106,33 -160,46 -54,14 -102,18 -144,12 -42,-5 -78,-18 -108,-40 -65,-43 -107,-118 -126,-225 -19,-107 -17,-235 4,-384 22,-149 57,-315 106,-499 49,-184 109,-377 182,-580 73,-203 152,-409 236,-617 84,-208 173,-413 268,-615 94,-201 186,-391 274,-568 87,-177 172,-339 253,-485 -73,62 -147,114 -223,154 -30,17 -53,11 -69,-18 -16,-28 -11,-51 16,-67 241,-159 429,-343 564,-552 8,-11 18,-16 29,-16 11,0 19,5 26,14 7,10 7,21 2,35 -11,24 -56,117 -136,280 -80,162 -151,311 -213,446 -62,135 -145,315 -247,538 -103,223 -193,429 -270,617 -77,188 -160,393 -248,616 -88,224 -158,426 -211,607 -53,181 -96,354 -130,519 -33,166 -45,306 -34,420 11,115 43,199 97,250 60,51 159,52 298,2 140,-50 300,-137 481,-260 182,-123 357,-249 528,-377 170,-129 344,-262 521,-400 178,-138 303,-231 376,-280z"/>
    <path class="fil1" d="M4091 3129c-2544,1469 -3416,4722 -1947,7266 1469,2544 4722,3416 7266,1947 2544,-1469 3416,-4722 1947,-7266 -1469,-2544 -4722,-3415 -7266,-1947zm5260 9111c-2516,1452 -5733,590 -7185,-1925 -1453,-2516 -591,-5733 1925,-7186 2516,-1452 5733,-590 7185,1926 1453,2515 591,5732 -1925,7185z"/>
   </g>
   <path class="fil2 str0" d="M2856 10639c14,0 21,-9 21,-27l0 -559c0,-19 -7,-28 -21,-28l0 -5 77 0 127 162 125 -162 78 0 0 5c-15,0 -23,9 -23,28l0 559c0,18 8,27 23,27l0 7 -99 0 0 -7c14,0 21,-9 21,-27l0 -517 -125 160 -127 -160 0 517c0,18 7,27 22,27l0 7 -99 0 0 -7zm562 0c14,0 21,-9 21,-27l0 -559c0,-19 -7,-28 -21,-28l0 -5 218 0 39 63 -6 2c-8,-11 -17,-18 -27,-21 -11,-3 -24,-5 -40,-5l-108 0 0 148 93 0c19,0 28,-7 28,-22l8 0 0 82 -8 0c0,-14 -9,-21 -28,-21l-93 0 0 360 147 0c16,0 29,-2 39,-5 11,-4 21,-11 31,-22l5 3 -41 64 -257 0 0 -7zm377 0c14,0 21,-9 21,-27l0 -559c0,-19 -7,-28 -21,-28l0 -5 98 0 0 5c-15,0 -22,9 -22,28l0 553 108 0c14,0 27,-2 38,-5 10,-4 20,-11 29,-22l4 3 -39 64 -216 0 0 -7zm369 1c15,0 22,-9 22,-26l0 -715 -78 0c-14,0 -27,2 -38,6 -11,4 -21,12 -29,23l-6 -5 39 -62 277 0 41 62 -6 5c-9,-11 -19,-19 -29,-23 -11,-4 -24,-6 -39,-6l-77 0 0 715c0,17 7,26 20,26l0 6 -97 0 0 -6zm444 18c-36,0 -66,-7 -89,-21 -23,-15 -40,-33 -51,-55 -12,-22 -18,-45 -19,-70 -1,-25 3,-48 13,-70 9,-22 24,-40 42,-55 19,-14 42,-21 69,-21 31,0 54,8 69,25 15,17 23,36 23,56 1,20 -6,39 -19,56 -14,17 -33,25 -59,25 13,0 23,-7 32,-21 8,-13 12,-29 12,-45 0,-17 -4,-32 -13,-46 -9,-14 -24,-21 -45,-21 -24,0 -43,12 -57,34 -14,22 -20,47 -19,75 1,27 10,52 28,74 17,23 45,34 83,34 36,0 65,-13 86,-38 21,-25 32,-55 32,-89 0,-28 -6,-53 -18,-75 -12,-22 -27,-42 -44,-61 -18,-19 -37,-37 -57,-53 -21,-16 -40,-33 -57,-50 -17,-17 -32,-35 -43,-55 -12,-19 -17,-41 -16,-65 0,-14 2,-29 7,-42 5,-14 13,-26 24,-36 10,-10 24,-19 41,-25 17,-7 37,-10 61,-10 17,0 35,4 54,13 19,9 34,23 45,41l0 74 -6 0c-1,-7 -4,-15 -9,-25 -5,-10 -12,-19 -21,-28 -8,-9 -18,-17 -29,-23 -11,-6 -23,-9 -35,-9 -7,0 -15,1 -24,3 -9,2 -17,6 -25,11 -7,5 -14,12 -20,21 -5,9 -8,20 -8,34 0,21 6,40 17,57 11,17 25,33 42,49 17,16 35,32 55,49 19,16 38,34 55,54 17,20 31,42 42,67 11,24 17,52 18,84 1,52 -14,94 -45,126 -31,31 -72,47 -122,47zm651 -19c15,0 22,-9 22,-27l0 -559c0,-19 -7,-28 -22,-28l0 -5 99 0 0 5c-14,0 -21,9 -21,28l0 559c0,18 7,27 21,27l0 7 -99 0 0 -7zm230 0c15,0 22,-9 22,-27l0 -559c0,-19 -7,-28 -22,-28l0 -5 78 0 164 169 0 -136c0,-19 -7,-28 -20,-28l0 -5 98 0 0 5c-15,0 -23,9 -23,28l0 559c0,18 8,27 23,27l0 7 -98 0 0 -7c13,0 20,-9 20,-27l0 -357 -164 -167 0 524c0,18 6,27 20,27l0 7 -98 0 0 -7zm898 0c14,0 21,-9 21,-27l0 -366 -91 -193c-4,-8 -9,-14 -16,-20 -6,-5 -13,-8 -20,-8l0 -5 99 0 0 5c-7,0 -11,3 -12,8 -1,6 0,12 4,20l64 135 65 -135c4,-8 5,-14 4,-20 -1,-5 -5,-8 -12,-8l0 -5 100 0 0 5c-8,0 -15,3 -21,8 -6,6 -11,12 -15,20l-94 193 0 366c0,18 8,27 23,27l0 7 -99 0 0 -7zm425 7c-31,0 -57,-7 -78,-23 -21,-15 -38,-37 -52,-65 -13,-28 -23,-61 -29,-100 -6,-39 -9,-82 -9,-130 0,-48 3,-91 9,-130 6,-39 16,-72 29,-99 14,-28 31,-49 52,-64 21,-15 47,-22 78,-22 31,0 57,7 79,22 21,15 39,36 52,64 14,27 24,60 30,99 7,39 10,82 10,130 0,48 -3,91 -9,130 -6,39 -15,72 -29,100 -14,28 -31,50 -53,65 -22,16 -49,23 -80,23zm-1 -38c21,0 39,-7 54,-21 15,-13 27,-32 37,-57 9,-25 16,-55 20,-89 4,-34 6,-71 6,-112 0,-81 -9,-147 -26,-197 -18,-51 -48,-76 -91,-76 -40,0 -70,25 -88,76 -18,50 -27,116 -27,197 0,41 3,78 7,112 5,34 11,64 21,89 9,25 21,44 36,57 14,14 31,21 51,21zm469 41c-50,0 -90,-19 -118,-58 -29,-39 -43,-96 -43,-170l0 -368c0,-19 -7,-28 -21,-28l0 -5 97 0 0 5c-14,0 -21,9 -21,28l0 368c0,56 9,100 27,134 17,33 44,50 79,50 35,0 61,-17 79,-50 17,-34 26,-78 26,-134l0 -368c0,-19 -7,-28 -21,-28l0 -5 97 0 0 5c-14,0 -21,9 -21,28l0 368c0,74 -13,131 -41,170 -27,39 -67,58 -119,58zm299 -10c13,0 20,-9 20,-27l0 -559c0,-19 -7,-28 -20,-28l0 -5 166 0c27,0 49,3 67,9 18,6 33,15 44,25 11,10 19,22 24,36 5,13 7,27 7,42 1,23 -5,45 -19,65 -13,21 -36,35 -69,43l66 372c3,18 11,27 25,27l0 7 -99 0 0 -7c16,0 22,-9 17,-27l-63 -366 -91 0 0 366c0,18 8,27 24,27l0 7 -99 0 0 -7zm159 -432c25,0 46,-4 64,-13 18,-9 27,-30 28,-62 1,-31 -8,-52 -27,-60 -19,-9 -40,-13 -65,-13l-84 0 0 148 84 0zm635 432c14,0 21,-9 21,-27l0 -559c0,-19 -7,-28 -21,-28l0 -5 76 0 127 162 125 -162 78 0 0 5c-15,0 -22,9 -22,28l0 559c0,18 7,27 22,27l0 7 -99 0 0 -7c14,0 21,-9 21,-27l0 -517 -125 160 -127 -160 0 517c0,18 7,27 22,27l0 7 -98 0 0 -7zm704 7c-31,0 -57,-7 -78,-23 -21,-15 -38,-37 -52,-65 -13,-28 -23,-61 -29,-100 -6,-39 -9,-82 -9,-130 0,-48 3,-91 9,-130 6,-39 16,-72 29,-99 14,-28 31,-49 52,-64 21,-15 47,-22 78,-22 31,0 57,7 79,22 22,15 39,36 52,64 14,27 24,60 31,99 6,39 9,82 9,130 0,48 -3,91 -9,130 -6,39 -15,72 -29,100 -14,28 -31,50 -53,65 -22,16 -49,23 -80,23zm-1 -38c21,0 39,-7 54,-21 15,-13 27,-32 37,-57 9,-25 16,-55 20,-89 4,-34 6,-71 6,-112 0,-81 -9,-147 -26,-197 -18,-51 -48,-76 -91,-76 -40,0 -70,25 -88,76 -18,50 -27,116 -27,197 0,41 3,78 7,112 5,34 12,64 21,89 9,25 21,44 36,57 14,14 31,21 51,21zm470 41c-51,0 -91,-19 -119,-58 -29,-39 -43,-96 -43,-170l0 -368c0,-19 -7,-28 -21,-28l0 -5 97 0 0 5c-14,0 -21,9 -21,28l0 368c0,56 9,100 27,134 17,33 44,50 79,50 35,0 61,-17 79,-50 17,-34 26,-78 26,-134l0 -368c0,-19 -7,-28 -21,-28l0 -5 97 0 0 5c-14,0 -21,9 -21,28l0 368c0,74 -13,131 -41,170 -27,39 -67,58 -118,58zm378 -9c15,0 22,-9 22,-26l0 -715 -78 0c-15,0 -28,2 -39,6 -11,4 -20,12 -28,23l-6 -5 39 -62 276 0 42 62 -6 5c-9,-11 -19,-19 -30,-23 -11,-4 -24,-6 -39,-6l-76 0 0 715c0,17 7,26 20,26l0 6 -97 0 0 -6zm328 -1c14,0 21,-9 21,-27l0 -559c0,-19 -7,-28 -21,-28l0 -5 97 0 0 5c-14,0 -21,9 -21,28l0 154 168 0 0 -154c0,-19 -8,-28 -23,-28l0 -5 99 0 0 5c-14,0 -21,9 -21,28l0 559c0,18 7,27 21,27l0 7 -99 0 0 -7c15,0 23,-9 23,-27l0 -366 -168 0 0 366c0,18 7,27 21,27l0 7 -97 0 0 -7z"/>
  </g>
 </g>
</svg>
